<svg width="1000" height="1000" viewBox="0 0 1000 1000" fill="none" xmlns="http://www.w3.org/2000/svg">
<path fill-rule="evenodd" clip-rule="evenodd" d="M635 477C670.804 477 705.142 491.223 730.459 516.541C755.777 541.858 770 576.196 770 612C770 647.804 755.777 682.142 730.459 707.459C705.142 732.777 670.804 747 635 747C610.147 747 590 726.853 590 702C590 677.147 610.147 657 635 657C646.935 657 658.381 652.259 666.82 643.82C675.259 635.381 680 623.935 680 612C680 600.065 675.259 588.619 666.82 580.18C658.381 571.741 646.935 567 635 567C610.147 567 590 546.853 590 522C590 497.147 610.147 477 635 477Z" fill="white"/>
<path fill-rule="evenodd" clip-rule="evenodd" d="M686.662 262.276C670.283 255.492 652.728 252 635 252C610.147 252 590 272.147 590 297C590 321.853 610.147 342 635 342C640.909 342 646.761 343.164 652.221 345.425C657.68 347.687 662.641 351.002 666.82 355.18C670.998 359.359 674.313 364.32 676.575 369.779C678.836 375.239 680 381.091 680 387C680 411.853 700.147 432 725 432C749.853 432 770 411.853 770 387C770 369.272 766.508 351.717 759.724 335.338C752.939 318.959 742.995 304.077 730.459 291.541C717.924 279.005 703.041 269.061 686.662 262.276Z" fill="white"/>
<path fill-rule="evenodd" clip-rule="evenodd" d="M365 747C329.196 747 294.858 732.777 269.541 707.459C244.223 682.142 230 647.804 230 612C230 576.196 244.223 541.858 269.541 516.541C294.858 491.223 329.196 477 365 477C389.853 477 410 497.147 410 522C410 546.853 389.853 567 365 567C353.065 567 341.619 571.741 333.18 580.18C324.741 588.619 320 600.065 320 612C320 623.935 324.741 635.381 333.18 643.82C341.619 652.259 353.065 657 365 657C389.853 657 410 677.147 410 702C410 726.853 389.853 747 365 747Z" fill="white"/>
<path fill-rule="evenodd" clip-rule="evenodd" d="M230 387C230 351.196 244.223 316.858 269.541 291.541C294.858 266.223 329.196 252 365 252C389.853 252 410 272.147 410 297C410 321.853 389.853 342 365 342C353.065 342 341.619 346.741 333.18 355.18C324.741 363.619 320 375.065 320 387C320 411.853 299.853 432 275 432C250.147 432 230 411.853 230 387Z" fill="white"/>
<circle cx="500" cy="702" r="45" fill="white"/>
<path fill-rule="evenodd" clip-rule="evenodd" d="M545 297C545 272.147 524.853 252 500 252C475.147 252 455 272.147 455 297V567C455 591.853 475.147 612 500 612C524.853 612 545 591.853 545 567V297Z" fill="white"/>
</svg>
